<svg width="28" height="32" viewBox="0 0 28 32" fill="none" xmlns="http://www.w3.org/2000/svg">
<path fill-rule="evenodd" clip-rule="evenodd" d="M27.25 23.5V10.375L17.875 1H8.49999C6.42892 1 4.74999 2.67893 4.74999 4.75V23.5C4.74999 25.5711 6.42892 27.25 8.49999 27.25H23.5C25.5711 27.25 27.25 25.5711 27.25 23.5Z" fill="#E5E5E5"/>
<path fill-rule="evenodd" clip-rule="evenodd" d="M1 4.75V23.5C1 27.6421 4.35786 31 8.5 31H23.5M17.875 1L17.875 6.625C17.875 8.69607 19.5539 10.375 21.625 10.375H27.25" fill="#E5E5E5"/>
<path d="M27.25 10.375V23.5C27.25 25.5711 25.5711 27.25 23.5 27.25H8.49999C6.42892 27.25 4.74999 25.5711 4.74999 23.5V4.75C4.74999 2.67893 6.42892 1 8.49999 1H17.875M27.25 10.375L17.875 1M27.25 10.375H21.625C19.5539 10.375 17.875 8.69607 17.875 6.625L17.875 1M1 4.75V23.5C1 27.6421 4.35786 31 8.5 31H23.5" stroke="white" stroke-width="1.5" stroke-linecap="round" stroke-linejoin="round"/>
</svg>
