<svg width="90" height="90" viewBox="0 0 90 90" fill="none" xmlns="http://www.w3.org/2000/svg">
<path d="M44.8633 47.8821C41.8121 39.8989 38.7191 35.7612 29.9836 28.1959C27.7265 26.1895 25.7202 24.5597 25.5531 24.5597C25.386 24.5597 24.5917 25.3954 23.7558 26.3986L22.2512 28.2794L24.0067 29.9096C24.4524 30.2996 25.1955 30.9703 26.0706 31.7604L26.0743 31.7641C26.9157 32.523 27.8786 33.3924 28.8169 34.2288L29.1853 34.5563L29.6493 34.9671C33.411 38.269 35.5425 40.6513 37.1307 43.1592L37.925 44.4131L36.6711 43.4518C33.8288 41.2783 30.8194 39.481 27.9773 38.269C23.9648 36.5553 16.3995 33.7549 15.7726 33.7549C15.2294 33.7549 13.7664 38.018 14.2262 38.3943C14.3933 38.5198 17.3609 39.7317 20.7882 41.0692C24.2574 42.3651 27.8938 43.9532 28.9386 44.5386C31.1121 45.7505 35.4172 49.0944 34.1633 48.5926C28.0609 46.0848 23.6305 45.3743 15.3547 45.5414L9.50307 45.667L9.25235 55.9073H16.6504C26.8906 55.9073 30.4851 56.994 37.1307 62.0097C38.7609 63.2216 40.8089 64.5591 41.6867 64.8934C45.3648 66.4819 49.3355 65.4368 54.184 61.5915C55.5214 60.5467 57.7784 59.1256 59.1996 58.4151C63.5465 56.3251 65.9287 55.9073 74.1629 55.9073H81.6443L81.3936 45.667L75.333 45.5414C68.7292 45.4162 63.839 45.9177 60.328 47.1716C59.0741 47.5898 57.9875 47.8821 57.8621 47.7985C57.7784 47.6733 58.9905 46.7537 60.5788 45.7089C62.2925 44.5802 66.0543 42.7829 70.1085 41.2367C73.7866 39.8572 76.9214 38.5614 77.1303 38.3943C77.5483 37.9764 76.1691 33.7549 75.6257 33.7549C74.7898 33.7549 63.9643 37.9764 61.2058 39.3558C59.6174 40.1499 57.3605 41.571 56.1484 42.5322C54.9363 43.4934 53.8913 44.204 53.8077 44.1204C53.7242 44.0368 54.56 42.6993 55.6886 41.1947C56.9007 39.5646 60.119 36.3462 63.4209 33.4622C66.5139 30.7873 69.0635 28.4466 69.0635 28.3214C69.0635 28.1959 68.353 27.2763 67.4335 26.2314L65.8452 24.3925L60.8713 28.7393C52.8045 35.8448 50.3387 38.8541 47.0366 45.3743C45.4066 48.6346 45.2393 48.8437 44.8633 47.8821Z" fill="white"/>
</svg>
