<svg width="24" height="30" viewBox="0 0 24 30" fill="none" xmlns="http://www.w3.org/2000/svg">
<path d="M16.1278 24.148C16.1278 25.1695 15.722 26.1492 14.9996 26.8716C14.2773 27.5939 13.2975 27.9998 12.2761 27.9998C11.2546 27.9998 10.2748 27.5939 9.55247 26.8716C8.83012 26.1492 8.4243 25.1695 8.4243 24.148M4.03485 22.8643C3.40643 22.7309 2.85084 22.3669 2.47767 21.844C2.1045 21.321 1.94089 20.6773 2.01912 20.0397L3.30304 9.62708C3.63085 7.48634 4.72061 5.53592 6.3719 4.13469C8.02319 2.73345 10.1249 1.97564 12.2905 2.0006C14.4561 1.97564 16.5577 2.73345 18.209 4.13469C19.8604 5.53592 20.9501 7.48634 21.2779 9.62708L22.5619 20.0397C22.6406 20.6755 22.4787 21.3177 22.1081 21.8404C21.7376 22.363 21.185 22.7282 20.5589 22.8643C15.1249 24.1412 9.46885 24.1412 4.03485 22.8643Z" stroke="#292E7A" stroke-width="2.5" stroke-linecap="round" stroke-linejoin="round"/>
</svg>
