<svg width="21" height="27" viewBox="0 0 21 27" fill="none" xmlns="http://www.w3.org/2000/svg">
<path d="M21 9V22.2C21 23.8801 21 24.7203 20.673 25.362C20.3854 25.9265 19.9265 26.3854 19.362 26.673C18.7203 27 17.8801 27 16.2 27H4.8C3.11983 27 2.27976 27 1.63803 26.673C1.07354 26.3854 0.614595 25.9265 0.326985 25.362C-1.11759e-07 24.7203 0 23.8801 0 22.2V4.8C0 3.11983 -1.11759e-07 2.27976 0.326985 1.63803C0.614595 1.07354 1.07354 0.614595 1.63803 0.326985C2.27976 -1.11759e-07 3.11985 0 4.8 0H12M21 9L12 0L21 9ZM21 9H13.5C12.6715 9 12 8.32842 12 7.5V0" fill="#E5E5E5"/>
</svg>
