<svg width="72" height="67" viewBox="0 0 72 67" fill="none" xmlns="http://www.w3.org/2000/svg">
<path fill-rule="evenodd" clip-rule="evenodd" d="M5.18421 66.3914C3.32934 64.8649 1.59573 63.1964 0 61.4025C0.759925 57.8123 2.11562 54.4571 4.05 51.4257C6.11877 48.1615 9.647 44.5791 12.8777 42.4767C16.746 39.9594 21.2519 38.2028 25.2902 37.6357C25.6213 37.5884 25.9708 37.5366 26.2469 37.4957L26.2495 37.4953L26.2509 37.4951C26.4574 37.4645 26.6224 37.44 26.7072 37.4282C26.9056 37.3867 28.7901 37.3867 30.8872 37.4144C34.3446 37.4559 34.8831 37.4973 36.4134 37.8155C38.0571 38.1474 41.727 39.2263 41.727 39.3646C41.727 39.3923 41.3019 39.9455 40.7776 40.5818C38.5388 43.2789 37.2069 46.308 36.7535 49.7244C36.5551 51.2459 36.6543 54.0399 36.966 55.4645C37.8587 59.531 39.8849 62.8367 43.2148 65.6584L44.065 66.3914H5.18421ZM28.9602 0.608588C23.4907 3.41639 9.08019 11.0376 9.03768 11.1482C9.02351 11.2174 11.0781 12.3654 13.6286 13.6932C14.7245 14.2637 16.2231 15.0462 17.8336 15.8869C19.9713 17.003 22.306 18.2219 24.1567 19.1843C27.3873 20.8856 30.1221 22.2688 30.2212 22.2688C30.3771 22.2688 39.9416 17.3171 43.7107 15.2838C44.4475 14.8827 46.2329 13.956 47.6782 13.2091L47.7021 13.1968C51.5466 11.2173 51.5742 11.2031 51.2631 10.9961C51.1214 10.8993 46.9272 8.70004 41.9395 6.08588C36.9518 3.48555 32.29 1.0512 31.5815 0.677745C30.873 0.304294 30.2638 0 30.2212 0C30.1929 0 29.6261 0.276631 28.9602 0.608588ZM42.7188 18.1055C42.1804 18.4236 39.6299 19.7929 31.2698 24.2328L30.2496 24.7861L27.7982 23.4998C24.015 21.5219 19.0981 18.8385 18.2479 18.3129C17.837 18.0501 17.4544 17.8427 17.3977 17.8427C17.3552 17.8427 17.3552 19.0737 17.3977 20.5675C17.4828 23.8732 17.6953 24.8138 18.8572 27.0683C19.4949 28.3408 19.8633 28.8387 20.841 29.8623C22.7255 31.8125 24.5817 32.8914 27.2173 33.5553C28.4925 33.8734 28.7901 33.9011 30.6747 33.8458C33.8487 33.7351 35.9316 33.0159 38.2979 31.1901C41.6136 28.6313 43.2006 25.1457 43.3848 20.0142C43.4273 18.7417 43.4415 17.7044 43.4132 17.7044C43.3848 17.7044 43.0731 17.8842 42.7188 18.1055ZM49.3928 38.2719C50.8097 37.5942 52.7226 36.9994 54.1254 36.8058C58.6739 36.1695 63.5057 37.6495 66.9347 40.7477C69.0177 42.6288 70.6613 45.3121 71.4265 48.0646C71.7807 49.3233 71.8233 49.6691 71.8233 51.8683C71.8233 54.0537 71.7807 54.4271 71.4407 55.6443C69.967 61.0109 65.6878 65.1881 60.19 66.6265C58.9431 66.9585 58.5605 67 56.3217 67C54.0829 67 53.7003 66.9585 52.4251 66.6265C50.7389 66.1839 48.2592 65.0083 46.9556 64.0539C45.7937 63.1825 44.2209 61.578 43.4274 60.4439C42.5488 59.1852 41.6278 57.1934 41.2027 55.6443C40.8627 54.4271 40.8201 54.0399 40.8201 51.8683C40.8201 49.6553 40.8627 49.3233 41.2169 48.0646C42.4355 43.7215 45.3828 40.1945 49.3928 38.2719ZM67.2323 47.5252C65.8153 44.2056 63.0098 41.7989 59.3965 40.7892C58.2063 40.4711 55.5424 40.3328 54.3379 40.5403C53.1902 40.7339 51.3198 41.3978 50.4271 41.9234C47.8058 43.4726 46.0487 45.6164 45.0427 48.4796C44.5326 49.9319 44.4051 52.7673 44.7593 54.2888C45.8078 58.6872 48.996 61.9238 53.4169 63.0995C54.9472 63.5006 57.5828 63.5006 59.2265 63.0857C63.1514 62.0898 66.1979 59.3097 67.5299 55.4645C67.9408 54.3165 67.9975 53.9292 68.0541 52.3524C68.1108 50.2777 67.9266 49.1573 67.2323 47.5252ZM54.1963 49.7936H50.6539V54.0814H54.1963V57.4009H58.4471V54.0814H61.9895V49.7936H58.4471V46.474H54.1963V49.7936Z" fill="white"/>
</svg>
