<svg width="1384" height="238" viewBox="0 0 1384 238" fill="none" xmlns="http://www.w3.org/2000/svg">
<path d="M0.00012207 53.97C0.00012207 24.1632 24.1633 0 53.9701 0H183.53C213.337 0 237.5 24.1632 237.5 53.97V183.53C237.5 213.337 213.337 237.5 183.53 237.5H53.9701C24.1633 237.5 0.00012207 213.337 0.00012207 183.53V53.97Z" fill="white"/>
<path d="M168.857 66.902C169.957 65.902 170.658 66.0016 171.458 67.0016C173.459 69.6014 175.56 72.2016 177.66 74.8014C178.361 75.6014 178.06 76.1022 177.46 76.6022C173.059 80.5021 168.557 84.5022 164.055 88.402C156.952 94.6019 149.549 100.402 143.947 108.202C141.546 111.502 138.744 114.502 137.444 118.602C138.044 118.502 138.444 118.002 138.945 117.602C145.047 112.202 151.649 107.302 158.952 103.902C170.457 98.502 182.663 94.602 194.568 89.902C195.868 89.402 196.169 90.1016 196.469 91.0016C197.669 94.2015 198.67 97.3017 199.87 100.502C200.27 101.701 199.67 101.802 198.869 102.102C193.968 103.902 188.966 105.802 184.064 107.702C176.261 110.802 168.257 113.302 160.854 117.502C154.951 120.902 149.449 124.902 144.447 129.702C145.247 129.802 145.847 129.302 146.547 129.002C158.152 123.802 170.157 120.502 182.863 120.602C191.966 120.702 200.971 120.702 210.074 120.602C211.675 120.602 212.175 121.002 212.175 122.801C212.185 130.901 212.175 138.702 212.175 146.602C202.771 146.602 193.367 146.802 184.064 146.602C167.557 146.302 153.251 152.202 140.245 162.202C133.398 167.28 127.909 172.506 118.7 172.502C118.68 172.502 118.66 172.502 118.64 172.502C118.62 172.502 118.6 172.503 118.579 172.503C109.37 172.507 103.882 167.28 97.0344 162.202C84.0291 152.202 69.7228 146.302 53.2161 146.602C43.9124 146.802 34.5084 146.602 25.1047 146.602C25.1047 138.702 25.0943 130.901 25.1047 122.801C25.1048 121.002 25.6049 120.602 27.2053 120.602C36.3091 120.702 45.3135 120.702 54.4172 120.602C67.1224 120.502 79.1279 123.802 90.7327 129.002C91.4327 129.302 92.0331 129.802 92.8332 129.702C87.8312 124.902 82.3284 120.902 76.426 117.502C69.023 113.302 61.0192 110.802 53.2161 107.702C48.3143 105.802 43.3122 103.902 38.4104 102.102C37.6101 101.802 37.0093 101.702 37.4094 100.502C38.6099 97.3016 39.6103 94.2016 40.8108 91.0016C41.1109 90.1016 41.4116 89.402 42.7121 89.902C54.617 94.6019 66.8227 98.5021 78.3274 103.902C85.6302 107.302 92.2328 112.202 98.3352 117.602C98.8353 118.002 99.236 118.502 99.8362 118.602C98.5357 114.502 95.7342 111.502 93.3332 108.202C87.731 100.402 80.3277 94.6019 73.2248 88.402C68.7232 84.5022 64.2212 80.502 59.8196 76.6022C59.2193 76.1022 58.9191 75.6014 59.6194 74.8014C61.7201 72.2016 63.8208 69.6015 65.8215 67.0016C66.6218 66.0017 67.3226 65.902 68.4231 66.902C76.0261 73.6019 83.7296 80.1021 91.2327 86.902C98.4355 93.5019 104.539 101.102 109.24 109.902C112.542 115.902 115.342 122.102 117.743 128.602C117.943 129.2 118.142 129.798 118.639 130.198C119.136 129.798 119.337 129.201 119.536 128.602C121.937 122.102 124.738 115.902 128.039 109.902C132.741 101.102 138.844 93.5019 146.047 86.902C153.55 80.1021 161.254 73.6019 168.857 66.902Z" fill="#0B177E"/>
<path d="M446.276 194.147H282.726V43.4832H446.276V65.0916H304.334V107.912H426.848V129.52H304.334V172.341H446.276V194.147Z" fill="white"/>
<path d="M559.396 194.147H475.143V43.4832H559.396C608.163 43.4832 638.693 62.1179 638.693 112.471V124.961C638.693 175.314 608.163 194.147 559.396 194.147ZM559.396 172.341C601.423 172.341 617.084 161.635 617.084 124.961V112.471C617.084 75.9949 601.423 65.0916 559.396 65.0916H496.751V172.341H559.396Z" fill="white"/>
<path d="M754.39 195.733C723.067 195.733 704.631 194.544 689.168 185.821C676.282 178.486 669.344 164.807 669.344 150.732V136.062H690.952V150.732C690.952 167.186 701.459 174.125 743.09 174.125C786.505 174.125 806.329 171.349 806.329 154.499V147.957C806.329 139.234 804.941 137.053 797.21 133.683C786.307 128.926 771.042 128.331 743.09 128.331C721.68 128.331 704.234 126.745 691.547 121.392C678.265 115.643 669.344 102.559 669.344 87.2947V80.7527C669.344 49.6287 702.054 39.5183 743.09 39.5183C774.412 39.5183 792.65 40.7078 808.311 49.4304C821.197 56.7654 828.136 70.4441 828.136 84.5193V99.1892H806.329V84.5193C806.329 68.0652 796.02 61.1267 754.39 61.1267C710.975 61.1267 690.952 63.9021 690.952 80.7527V87.2947C690.952 96.0173 692.538 97.9998 700.269 101.37C711.173 106.128 726.437 106.722 754.39 106.722C775.8 106.722 793.245 108.308 805.933 113.859C819.215 119.608 828.136 132.692 828.136 147.957V154.499C828.136 185.425 795.426 195.733 754.39 195.733Z" fill="white"/>
<path d="M945.419 194.147H923.81V65.0916H849.073V43.4832H1020.16V65.0916H945.419V194.147Z" fill="white"/>
<path d="M1187.99 194.147H1162.81L1137.24 150.534H1046.25L1020.48 194.147H995.497L1083.91 43.4832H1099.57L1187.99 194.147ZM1124.35 128.727L1091.64 73.0212L1058.93 128.727H1124.35Z" fill="white"/>
<path d="M1300.52 178.09C1322.92 178.09 1338.58 174.719 1347.9 167.979C1357.01 161.239 1361.57 148.75 1361.57 130.71V112.471C1361.57 94.4314 1357.01 81.9421 1347.9 75.2019C1338.58 68.4617 1322.92 65.0916 1300.52 65.0916H1287.63C1272.76 65.0916 1261.07 66.4792 1252.14 69.2546C1243.22 72.2283 1236.68 76.9861 1232.72 83.9246C1228.55 90.863 1226.57 100.379 1226.57 112.471V130.71C1226.57 148.75 1231.13 161.239 1240.45 167.979C1249.57 174.719 1265.23 178.09 1287.63 178.09H1300.52ZM1283.27 199.698C1267.81 199.698 1254.33 197.517 1242.63 193.156C1230.93 188.795 1221.62 181.658 1215.07 171.548C1208.33 161.437 1204.96 147.957 1204.96 130.71V112.471C1204.96 95.6208 1208.33 82.1404 1215.07 72.03C1221.81 61.9197 1231.33 54.783 1243.82 50.2234C1256.11 45.6638 1270.78 43.4832 1287.63 43.4832C1298.53 43.4832 1308.25 43.6814 1317.17 44.2761C1325.89 44.8708 1333.82 46.2585 1341.16 48.4392C1348.29 50.6199 1354.83 53.99 1360.98 58.5496C1368.31 64.2986 1374.06 71.6335 1377.83 80.9509C1381.6 90.2683 1383.38 100.775 1383.38 112.471V130.71C1383.38 147.957 1380.01 161.437 1373.27 171.548C1366.53 181.658 1357.21 188.795 1345.52 193.156C1333.82 197.517 1320.14 199.698 1304.88 199.698C1305.47 203.861 1309.24 206.636 1316.18 207.826C1323.51 209.214 1336.99 209.808 1356.22 209.808H1378.42V231.615H1356.22C1346.9 231.615 1338.18 231.417 1329.66 230.822C1321.13 230.227 1313.4 229.038 1306.66 227.055C1299.92 225.073 1294.37 221.901 1290.21 217.54C1285.85 211.989 1283.47 206.042 1283.27 199.698Z" fill="white"/>
</svg>
