<svg width="28" height="20" viewBox="0 0 28 20" fill="none" xmlns="http://www.w3.org/2000/svg">
<path fill-rule="evenodd" clip-rule="evenodd" d="M10.8459 13.6944V5.67757C13.5507 7.01675 15.6456 8.31043 18.1232 9.70519C16.0797 10.8976 13.5507 12.2356 10.8459 13.6944ZM25.9199 1.6904C25.4533 1.04361 24.6581 0.540127 23.8115 0.373441C21.3231 -0.123773 5.79873 -0.125187 3.31164 0.373441C2.63273 0.507355 2.02819 0.831046 1.50886 1.33396C-0.679343 3.47096 0.00633528 14.931 0.533777 16.7874C0.755571 17.5909 1.04229 18.1704 1.40339 18.5507C1.86862 19.0536 2.50559 19.3999 3.23725 19.5552C5.28615 20.0011 15.8417 20.2505 23.7682 19.6222C24.4985 19.4883 25.145 19.1308 25.6548 18.6066C27.678 16.4781 27.5401 4.37448 25.9199 1.6904Z" fill="#E5E5E5"/>
</svg>
